<svg width="132" height="132" viewBox="0 0 132 132" fill="none" xmlns="http://www.w3.org/2000/svg">
<g filter="url(#filter0_f_1_26)">
<path d="M41.082 104.102L42.7657 105.098C49.8375 109.287 57.9459 111.503 66.2147 111.507H66.232C91.6254 111.507 112.291 90.8846 112.302 65.5383C112.307 53.2558 107.519 41.7057 98.8207 33.0173C94.5545 28.7324 89.4791 25.3347 83.8883 23.0208C78.2975 20.7069 72.3025 19.5228 66.2501 19.537C40.8372 19.537 20.1703 40.1567 20.1613 65.5015C20.1488 74.156 22.5906 82.6373 27.2044 89.965L28.3006 91.7034L23.6456 108.665L41.082 104.102ZM10.3368 121.806L18.2011 93.1471C13.351 84.7603 10.7994 75.2455 10.8024 65.4977C10.8152 35.0031 35.6789 10.1944 66.2328 10.1944C81.0596 10.202 94.9763 15.9609 105.443 26.4147C115.909 36.8686 121.668 50.764 121.662 65.5421C121.649 96.0345 96.7814 120.848 66.232 120.848H66.2079C56.9319 120.844 47.817 118.521 39.7207 114.115L10.3368 121.806Z" fill="#B3B3B3"/>
</g>
<path d="M9.76801 121.237L17.6323 92.5787C12.7738 84.1715 10.2218 74.6346 10.2336 64.9293C10.2464 34.4346 35.1101 9.626 65.664 9.626C80.4908 9.63352 94.4075 15.3924 104.874 25.8463C115.34 36.3002 121.099 50.1955 121.094 64.9736C121.08 95.466 96.2126 120.279 65.6632 120.279H65.6391C56.3631 120.275 47.2482 117.953 39.1519 113.547L9.76801 121.237Z" fill="white"/>
<path d="M65.6806 18.9685C40.2676 18.9685 19.6008 39.5883 19.5918 64.933C19.5793 73.5875 22.0211 82.0689 26.6349 89.3966L27.731 91.1357L23.0761 108.097L40.5132 103.534L42.197 104.53C49.2687 108.718 57.3771 110.934 65.6459 110.938H65.6633C91.0566 110.938 111.723 90.3161 111.733 64.9699C111.752 58.9287 110.571 52.9437 108.257 47.3614C105.943 41.7792 102.542 36.7105 98.2519 32.4488C93.9856 28.1639 88.9101 24.7661 83.3192 22.4522C77.7283 20.1383 71.7331 18.9542 65.6806 18.9685Z" fill="url(#paint0_linear_1_26)"/>
<path fill-rule="evenodd" clip-rule="evenodd" d="M51.8098 41.8087C50.7717 39.5071 49.6793 39.4604 48.6932 39.4206L46.0383 39.3883C45.1147 39.3883 43.614 39.7341 42.3454 41.1177C41.0767 42.5012 37.4975 45.8449 37.4975 52.646C37.4975 59.4471 42.4606 66.0188 43.1522 66.9421C43.8438 67.8655 52.7334 82.2669 66.8114 87.8078C78.5102 92.4125 80.8908 91.4966 83.4311 91.2666C85.9715 91.0365 91.6254 87.9228 92.7788 84.6948C93.9322 81.4669 93.9329 78.7013 93.5871 78.1231C93.2413 77.5449 92.3177 77.2013 90.9316 76.5095C89.5454 75.8177 82.7373 72.474 81.4679 72.0123C80.1985 71.5506 79.2756 71.3213 78.3513 72.7048C77.4269 74.0883 74.7758 77.2005 73.9675 78.1231C73.1591 79.0457 72.3523 79.1615 70.9661 78.4705C69.5799 77.7795 65.1201 76.3193 59.8285 71.61C55.7114 67.946 52.9323 63.4209 52.1232 62.0382C51.3141 60.6554 52.0373 59.9065 52.7319 59.2177C53.3534 58.5982 54.1166 57.6034 54.8104 56.7966C55.5042 55.9898 55.7325 55.4131 56.1936 54.492C56.6546 53.5709 56.4248 52.7618 56.0783 52.0708C55.7318 51.3798 53.0408 44.5426 51.8098 41.8087Z" fill="white"/>
<defs>
<filter id="filter0_f_1_26" x="3.27479" y="3.13245" width="125.45" height="125.735" filterUnits="userSpaceOnUse" color-interpolation-filters="sRGB">
<feFlood flood-opacity="0" result="BackgroundImageFix"/>
<feBlend mode="normal" in="SourceGraphic" in2="BackgroundImageFix" result="shape"/>
<feGaussianBlur stdDeviation="3.531" result="effect1_foregroundBlur_1_26"/>
</filter>
<linearGradient id="paint0_linear_1_26" x1="64.7246" y1="24.4876" x2="65.1899" y2="103.081" gradientUnits="userSpaceOnUse">
<stop stop-color="#57D163"/>
<stop offset="1" stop-color="#23B33A"/>
</linearGradient>
</defs>
</svg>
